<svg width="76" height="75" viewBox="0 0 76 75" fill="none" xmlns="http://www.w3.org/2000/svg">
<circle r="33" transform="matrix(-1 0 0 1 37.9746 37.5122)" fill="#EF4C4C" fill-opacity="0.4"/>
<circle r="37.2232" transform="matrix(-1 0 0 1 37.9741 37.5127)" fill="#EF4C4C" fill-opacity="0.25"/>
<circle r="26.9929" transform="matrix(-1 0 0 1 37.9739 37.513)" fill="#EF4C4C"/>
<path d="M28.092 38.9264C27.311 38.1454 27.311 36.879 28.092 36.098L40.8199 23.3701C41.601 22.589 42.8673 22.589 43.6483 23.3701C44.4294 24.1511 44.4294 25.4174 43.6483 26.1985L32.3346 37.5122L43.6483 48.8259C44.4294 49.607 44.4294 50.8733 43.6483 51.6543C42.8673 52.4354 41.601 52.4354 40.8199 51.6543L28.092 38.9264ZM31.5312 39.5122H29.5062V35.5122H31.5312V39.5122Z" fill="white" fill-opacity="0.75"/>
</svg>
