<svg width="368" height="632" viewBox="0 0 368 632" fill="none" xmlns="http://www.w3.org/2000/svg">
<ellipse cx="80.1459" cy="512.195" rx="76.1402" ry="77.0652" transform="rotate(-2.57892 80.1459 512.195)" fill="url(#paint0_linear)"/>
<circle cx="243.375" cy="481.431" r="83.9309" transform="rotate(-16.5136 243.375 481.431)" fill="url(#paint1_linear)"/>
<circle cx="360.689" cy="322.948" r="110.574" transform="rotate(-16.5136 360.689 322.948)" fill="url(#paint2_linear)"/>
<circle cx="339.065" cy="409.233" r="110.574" transform="rotate(-66.1715 339.065 409.233)" fill="url(#paint3_linear)"/>
<circle cx="159.677" cy="519.373" r="70.4941" transform="rotate(-0.172345 159.677 519.373)" fill="url(#paint4_linear)"/>
<circle cx="329.461" cy="494.663" r="110.574" transform="rotate(-15.8553 329.461 494.663)" fill="url(#paint5_linear)"/>
<circle cx="329.821" cy="136.782" r="110.574" transform="rotate(-15.8553 329.821 136.782)" fill="url(#paint6_linear)"/>
<circle cx="385.634" cy="197.201" r="110.574" transform="rotate(-15.8553 385.634 197.201)" fill="url(#paint7_linear)"/>
<defs>
<linearGradient id="paint0_linear" x1="62.1402" y1="272.256" x2="149.058" y2="614.657" gradientUnits="userSpaceOnUse">
<stop stop-color="#F22B2B"/>
<stop offset="1" stop-color="#3C0809" stop-opacity="0.43"/>
</linearGradient>
<linearGradient id="paint1_linear" x1="243.375" y1="397.5" x2="243.375" y2="565.362" gradientUnits="userSpaceOnUse">
<stop stop-color="#F22B2B"/>
<stop offset="1" stop-color="#250404" stop-opacity="0.49"/>
</linearGradient>
<linearGradient id="paint2_linear" x1="360.689" y1="212.374" x2="360.689" y2="433.522" gradientUnits="userSpaceOnUse">
<stop stop-color="#F22B2B"/>
<stop offset="1" stop-color="#250404" stop-opacity="0.49"/>
</linearGradient>
<linearGradient id="paint3_linear" x1="339.065" y1="298.659" x2="339.065" y2="519.807" gradientUnits="userSpaceOnUse">
<stop stop-color="#F22B2B"/>
<stop offset="1" stop-color="#250404" stop-opacity="0.49"/>
</linearGradient>
<linearGradient id="paint4_linear" x1="159.677" y1="448.879" x2="159.677" y2="589.867" gradientUnits="userSpaceOnUse">
<stop stop-color="#F22B2B"/>
<stop offset="1" stop-color="#250404" stop-opacity="0.49"/>
</linearGradient>
<linearGradient id="paint5_linear" x1="329.461" y1="384.089" x2="329.461" y2="605.237" gradientUnits="userSpaceOnUse">
<stop stop-color="#F22B2B"/>
<stop offset="1" stop-color="#250404" stop-opacity="0.49"/>
</linearGradient>
<linearGradient id="paint6_linear" x1="329.821" y1="26.2073" x2="329.821" y2="247.356" gradientUnits="userSpaceOnUse">
<stop stop-color="#F22B2B"/>
<stop offset="1" stop-color="#250404" stop-opacity="0.49"/>
</linearGradient>
<linearGradient id="paint7_linear" x1="385.634" y1="86.6268" x2="385.634" y2="307.775" gradientUnits="userSpaceOnUse">
<stop stop-color="#F22B2B"/>
<stop offset="1" stop-color="#250404" stop-opacity="0.49"/>
</linearGradient>
</defs>
</svg>
