<svg width="203" height="382" viewBox="0 0 203 382" fill="none" xmlns="http://www.w3.org/2000/svg">
<ellipse cx="46.3846" cy="298.857" rx="43.8266" ry="44.3591" transform="rotate(-2.57892 46.3846 298.857)" fill="url(#paint0_linear)"/>
<circle cx="126.932" cy="268.021" r="48.311" transform="rotate(-16.5136 126.932 268.021)" fill="url(#paint1_linear)"/>
<circle cx="173.866" cy="186.144" r="63.647" transform="rotate(-16.5136 173.866 186.144)" fill="url(#paint2_linear)"/>
<circle cx="216.796" cy="244.136" r="63.647" transform="rotate(-66.1715 216.796 244.136)" fill="url(#paint3_linear)"/>
<circle cx="92.1625" cy="302.989" r="40.5767" transform="rotate(-0.172345 92.1625 302.989)" fill="url(#paint4_linear)"/>
<circle cx="172.96" cy="302.988" r="63.647" transform="rotate(-15.8553 172.96 302.988)" fill="url(#paint5_linear)"/>
<circle cx="222.117" cy="79.0729" r="63.647" transform="rotate(-15.8553 222.117 79.0729)" fill="url(#paint6_linear)"/>
<circle cx="230.82" cy="134.754" r="63.647" transform="rotate(-15.8553 230.82 134.754)" fill="url(#paint7_linear)"/>
<defs>
<linearGradient id="paint0_linear" x1="36.0205" y1="160.747" x2="86.0507" y2="357.834" gradientUnits="userSpaceOnUse">
<stop stop-color="#F22B2B"/>
<stop offset="1" stop-color="#3C0809" stop-opacity="0.43"/>
</linearGradient>
<linearGradient id="paint1_linear" x1="126.932" y1="219.71" x2="126.932" y2="316.332" gradientUnits="userSpaceOnUse">
<stop stop-color="#F22B2B"/>
<stop offset="1" stop-color="#250404" stop-opacity="0.49"/>
</linearGradient>
<linearGradient id="paint2_linear" x1="173.866" y1="122.497" x2="173.866" y2="249.791" gradientUnits="userSpaceOnUse">
<stop stop-color="#F22B2B"/>
<stop offset="1" stop-color="#250404" stop-opacity="0.49"/>
</linearGradient>
<linearGradient id="paint3_linear" x1="216.796" y1="180.489" x2="216.796" y2="307.783" gradientUnits="userSpaceOnUse">
<stop stop-color="#F22B2B"/>
<stop offset="1" stop-color="#250404" stop-opacity="0.49"/>
</linearGradient>
<linearGradient id="paint4_linear" x1="92.1625" y1="262.412" x2="92.1625" y2="343.565" gradientUnits="userSpaceOnUse">
<stop stop-color="#F22B2B"/>
<stop offset="1" stop-color="#250404" stop-opacity="0.49"/>
</linearGradient>
<linearGradient id="paint5_linear" x1="172.96" y1="239.341" x2="172.96" y2="366.635" gradientUnits="userSpaceOnUse">
<stop stop-color="#F22B2B"/>
<stop offset="1" stop-color="#250404" stop-opacity="0.49"/>
</linearGradient>
<linearGradient id="paint6_linear" x1="222.117" y1="15.4259" x2="222.117" y2="142.72" gradientUnits="userSpaceOnUse">
<stop stop-color="#F22B2B"/>
<stop offset="1" stop-color="#250404" stop-opacity="0.49"/>
</linearGradient>
<linearGradient id="paint7_linear" x1="230.82" y1="71.1071" x2="230.82" y2="198.401" gradientUnits="userSpaceOnUse">
<stop stop-color="#F22B2B"/>
<stop offset="1" stop-color="#250404" stop-opacity="0.49"/>
</linearGradient>
</defs>
</svg>
