<svg width="36" height="36" viewBox="0 0 36 36" fill="none" xmlns="http://www.w3.org/2000/svg">
<path d="M6.20633 26.4493C4.91953 26.4493 3.87305 25.4028 3.87305 24.116C3.87305 22.8292 4.91953 21.7827 6.20633 21.7827C7.49314 21.7827 8.53962 22.8292 8.53962 24.116C8.53962 25.4028 7.49314 26.4493 6.20633 26.4493ZM6.20633 22.9494C5.56306 22.9494 5.03969 23.4725 5.03969 24.116C5.03969 24.7593 5.56306 25.2826 6.20633 25.2826C6.84987 25.2826 7.37297 24.7593 7.37297 24.116C7.37297 23.4725 6.84987 22.9494 6.20633 22.9494Z" fill="white"/>
<path d="M12.0393 21.7826C10.7525 21.7826 9.70605 20.7361 9.70605 19.4493C9.70605 18.1625 10.7525 17.1157 12.0393 17.1157C13.3261 17.1157 14.3726 18.1625 14.3726 19.4493C14.3726 20.7361 13.3261 21.7826 12.0393 21.7826ZM12.0393 18.2826C11.3958 18.2826 10.8727 18.8057 10.8727 19.4493C10.8727 20.0925 11.3958 20.6159 12.0393 20.6159C12.6826 20.6159 13.206 20.0925 13.206 19.4493C13.206 18.8057 12.6826 18.2826 12.0393 18.2826Z" fill="white"/>
<path d="M17.8723 26.4493C16.5855 26.4493 15.5391 25.4028 15.5391 24.116C15.5391 22.8292 16.5855 21.7827 17.8723 21.7827C19.1592 21.7827 20.2056 22.8292 20.2056 24.116C20.2056 25.4028 19.1592 26.4493 17.8723 26.4493ZM17.8723 22.9494C17.2288 22.9494 16.7057 23.4725 16.7057 24.116C16.7057 24.7593 17.2288 25.2826 17.8723 25.2826C18.5159 25.2826 19.039 24.7593 19.039 24.116C19.039 23.4725 18.5159 22.9494 17.8723 22.9494Z" fill="white"/>
<path d="M29.5393 26.4493C28.2525 26.4493 27.2061 25.4028 27.2061 24.116C27.2061 22.8292 28.2525 21.7827 29.5393 21.7827C30.8261 21.7827 31.8726 22.8292 31.8726 24.116C31.8726 25.4028 30.8261 26.4493 29.5393 26.4493ZM29.5393 22.9494C28.8958 22.9494 28.3727 23.4725 28.3727 24.116C28.3727 24.7593 28.8958 25.2826 29.5393 25.2826C30.1826 25.2826 30.706 24.7593 30.706 24.116C30.706 23.4725 30.1826 22.9494 29.5393 22.9494Z" fill="white"/>
<path d="M23.7063 21.7826C22.4195 21.7826 21.373 20.7361 21.373 19.4493C21.373 18.1625 22.4195 17.1157 23.7063 17.1157C24.9931 17.1157 26.0396 18.1625 26.0396 19.4493C26.0396 20.7361 24.9931 21.7826 23.7063 21.7826ZM23.7063 18.2826C23.0631 18.2826 22.5397 18.8057 22.5397 19.4493C22.5397 20.0925 23.0631 20.6159 23.7063 20.6159C24.3499 20.6159 24.873 20.0925 24.873 19.4493C24.873 18.8057 24.3499 18.2826 23.7063 18.2826Z" fill="white"/>
<path d="M7.95643 11.2824H4.4565C4.13447 11.2824 3.87305 11.0209 3.87305 10.6992C3.87305 10.3771 4.13447 10.1157 4.4565 10.1157H7.95643C8.27846 10.1157 8.53962 10.3771 8.53962 10.6992C8.53962 11.0209 8.27846 11.2824 7.95643 11.2824Z" fill="white"/>
<path d="M10.8732 13.6159H4.4565C4.13447 13.6159 3.87305 13.3547 3.87305 13.0327C3.87305 12.7106 4.13447 12.4492 4.4565 12.4492H10.8732C11.1949 12.4492 11.4564 12.7106 11.4564 13.0327C11.4564 13.3547 11.1949 13.6159 10.8732 13.6159Z" fill="white"/>
<path d="M31.2892 11.2824H27.7892C27.4672 11.2824 27.2061 11.0209 27.2061 10.6992C27.2061 10.3771 27.4672 10.1157 27.7892 10.1157H31.2892C31.6112 10.1157 31.8726 10.3771 31.8726 10.6992C31.8726 11.0209 31.6112 11.2824 31.2892 11.2824Z" fill="white"/>
<path d="M7.60495 23.3478C7.43405 23.3478 7.26422 23.273 7.1494 23.1291C6.94806 22.8776 6.98891 22.5101 7.24019 22.3093L9.92595 20.1611C10.178 19.9598 10.5449 20.0006 10.746 20.2522C10.9473 20.5034 10.9065 20.8709 10.6552 21.0717L7.96944 23.2199C7.86156 23.3059 7.73258 23.3478 7.60495 23.3478Z" fill="white"/>
<path d="M19.2416 23.3716C19.0707 23.3716 18.9009 23.2971 18.7861 23.1529C18.5848 22.9016 18.6256 22.5339 18.8772 22.3334L21.5926 20.1611C21.8438 19.9598 22.2113 20.0006 22.4126 20.2522C22.6139 20.5034 22.5731 20.8709 22.3215 21.0717L19.6061 23.2439C19.4983 23.3296 19.3693 23.3716 19.2416 23.3716Z" fill="white"/>
<path d="M28.1828 23.3806C28.0552 23.3806 27.9268 23.3387 27.8189 23.253L25.092 21.0713C24.8405 20.87 24.7996 20.5031 25.0009 20.2518C25.2015 19.9998 25.5684 19.9594 25.821 20.1608L28.5481 22.3424C28.7994 22.5437 28.8403 22.9106 28.6392 23.1619C28.5236 23.3056 28.3545 23.3806 28.1828 23.3806Z" fill="white"/>
<path d="M16.5458 23.4041C16.4181 23.4041 16.2897 23.3619 16.1818 23.2762L13.425 21.0713C13.1735 20.87 13.1326 20.5031 13.3339 20.2518C13.5353 19.9998 13.9022 19.9594 14.1543 20.1608L16.9105 22.3656C17.1618 22.567 17.2026 22.9339 17.0013 23.1854C16.8865 23.3293 16.7166 23.4041 16.5458 23.4041Z" fill="white"/>
<path d="M32.748 35.199H2.99793C1.5509 35.199 0.373047 34.0212 0.373047 32.5742V2.8241C0.373047 1.37708 1.5509 0.199219 2.99793 0.199219H32.748C34.195 0.199219 35.3729 1.37708 35.3729 2.8241V32.5742C35.3729 34.0212 34.195 35.199 32.748 35.199ZM2.99793 1.36586C2.19417 1.36586 1.53969 2.02035 1.53969 2.8241V32.5742C1.53969 33.3779 2.19417 34.0324 2.99793 34.0324H32.748C33.5523 34.0324 34.2062 33.3779 34.2062 32.5742V2.8241C34.2062 2.02035 33.5517 1.36586 32.748 1.36586H2.99793Z" fill="white"/>
<path d="M5.62279 6.03264H3.28951C2.96747 6.03264 2.70605 5.77149 2.70605 5.44946V3.11617C2.70605 2.79413 2.96747 2.53271 3.28951 2.53271H5.62279C5.94483 2.53271 6.20598 2.79413 6.20598 3.11617V5.44946C6.20598 5.77149 5.94483 6.03264 5.62279 6.03264ZM3.8727 4.866H5.03934V3.69936H3.8727V4.866Z" fill="white"/>
<path d="M10.2898 6.03264H7.9565C7.63447 6.03264 7.37305 5.77149 7.37305 5.44946V3.11617C7.37305 2.79413 7.63447 2.53271 7.9565 2.53271H10.2898C10.6118 2.53271 10.8732 2.79413 10.8732 3.11617V5.44946C10.8732 5.77149 10.6118 6.03264 10.2898 6.03264ZM8.53969 4.866H9.7066V3.69936H8.53969V4.866Z" fill="white"/>
<path d="M14.9555 6.03264H12.6223C12.3002 6.03264 12.0391 5.77149 12.0391 5.44946V3.11617C12.0391 2.79413 12.3002 2.53271 12.6223 2.53271H14.9555C15.2776 2.53271 15.539 2.79413 15.539 3.11617V5.44946C15.539 5.77149 15.2776 6.03264 14.9555 6.03264ZM13.2057 4.866H14.3723V3.69936H13.2057V4.866Z" fill="white"/>
<path d="M34.7894 8.36572H0.956502C0.634467 8.36572 0.373047 8.10456 0.373047 7.78253V2.8241C0.373047 1.37708 1.5509 0.199219 2.99793 0.199219H32.748C34.195 0.199219 35.3729 1.37708 35.3729 2.8241V7.78253C35.3729 8.10456 35.1114 8.36572 34.7894 8.36572ZM1.53969 7.19907H34.2062V2.8241C34.2062 2.02035 33.5517 1.36586 32.748 1.36586H2.99793C2.19417 1.36586 1.53969 2.02035 1.53969 2.8241V7.19907Z" fill="white"/>
</svg>
