<svg width="36" height="29" viewBox="0 0 36 29" fill="none" xmlns="http://www.w3.org/2000/svg">
<path d="M32.9545 28.7825H2.82673C1.48331 28.7825 0.390625 27.6901 0.390625 26.3467V2.63532C0.390625 1.2919 1.48331 0.199219 2.82673 0.199219H32.9553C34.2979 0.199219 35.3906 1.2919 35.3906 2.63532V26.3467C35.3906 27.6901 34.2979 28.7825 32.9545 28.7825ZM2.82673 1.36587C2.12658 1.36587 1.55727 1.93517 1.55727 2.63532V26.3467C1.55727 27.0466 2.12658 27.6159 2.82673 27.6159H32.9553C33.6552 27.6159 34.2245 27.0466 34.2245 26.3467V2.63532C34.224 1.93517 33.6547 1.36587 32.9545 1.36587H2.82673Z" fill="white"/>
<path d="M32.9545 28.7823H2.82673C1.48331 28.7823 0.390625 27.6898 0.390625 26.3464V20.6157H35.3906V26.3464C35.3906 27.6898 34.2979 28.7823 32.9545 28.7823ZM1.55727 21.7824V26.3464C1.55727 27.0463 2.12658 27.6156 2.82673 27.6156H32.9545C33.6547 27.6156 34.224 27.0463 34.224 26.3464V21.7824H1.55727Z" fill="white"/>
<path d="M5.05706 13.6159C4.90779 13.6159 4.75853 13.5588 4.64477 13.445L2.89466 11.6952C2.66662 11.4669 2.66662 11.0984 2.89466 10.8704L4.64477 9.12025C4.87228 8.89221 5.24212 8.89221 5.46962 9.12025C5.69767 9.34829 5.69767 9.71706 5.46962 9.9451L4.13208 11.2826L5.46962 12.6202C5.69767 12.8482 5.69767 13.217 5.46962 13.445C5.35587 13.5588 5.2066 13.6159 5.05706 13.6159Z" fill="white"/>
<path d="M30.7242 13.6159C30.5747 13.6159 30.4254 13.5588 30.3117 13.445C30.0836 13.217 30.0836 12.8482 30.3117 12.6202L31.6492 11.2826L30.3117 9.9451C30.0836 9.71706 30.0836 9.34829 30.3117 9.12025C30.5392 8.89221 30.909 8.89221 31.1365 9.12025L32.8866 10.8704C33.1147 11.0984 33.1147 11.4669 32.8866 11.6952L31.1365 13.445C31.0228 13.5588 30.8735 13.6159 30.7242 13.6159Z" fill="white"/>
<path d="M13.224 8.94931H9.72408C9.40205 8.94931 9.14062 8.68789 9.14062 8.36585V4.86591C9.14062 4.54387 9.40205 4.28271 9.72408 4.28271H13.224C13.5461 4.28271 13.8072 4.54387 13.8072 4.86591V8.36585C13.8072 8.68789 13.5461 8.94931 13.224 8.94931ZM10.3073 7.78266H12.6406V5.44936H10.3073V7.78266Z" fill="white"/>
<path d="M19.641 8.94931H16.1408C15.819 8.94931 15.5576 8.68789 15.5576 8.36585V4.86591C15.5576 4.54387 15.819 4.28271 16.1408 4.28271H19.641C19.9628 4.28271 20.2242 4.54387 20.2242 4.86591V8.36585C20.2242 8.68789 19.9628 8.94931 19.641 8.94931ZM16.7243 7.78266H19.0576V5.44936H16.7243V7.78266Z" fill="white"/>
<path d="M26.0568 8.94931H22.5568C22.2348 8.94931 21.9736 8.68789 21.9736 8.36585V4.86591C21.9736 4.54387 22.2348 4.28271 22.5568 4.28271H26.0568C26.3788 4.28271 26.6402 4.54387 26.6402 4.86591V8.36585C26.6402 8.68789 26.3788 8.94931 26.0568 8.94931ZM23.1403 7.78266H25.4736V5.44936H23.1403V7.78266Z" fill="white"/>
<path d="M13.224 15.3658H9.72408C9.40205 15.3658 9.14062 15.1044 9.14062 14.7824V11.2824C9.14062 10.9604 9.40205 10.6992 9.72408 10.6992H13.224C13.5461 10.6992 13.8072 10.9604 13.8072 11.2824V14.7824C13.8072 15.1044 13.5461 15.3658 13.224 15.3658ZM10.3073 14.1992H12.6406V11.8659H10.3073V14.1992Z" fill="white"/>
<path d="M19.641 15.3658H16.1408C15.819 15.3658 15.5576 15.1044 15.5576 14.7824V11.2824C15.5576 10.9604 15.819 10.6992 16.1408 10.6992H19.641C19.9628 10.6992 20.2242 10.9604 20.2242 11.2824V14.7824C20.2242 15.1044 19.9628 15.3658 19.641 15.3658ZM16.7243 14.1992H19.0576V11.8659H16.7243V14.1992Z" fill="white"/>
<path d="M26.0568 15.3658H22.5568C22.2348 15.3658 21.9736 15.1044 21.9736 14.7824V11.2824C21.9736 10.9604 22.2348 10.6992 22.5568 10.6992H26.0568C26.3788 10.6992 26.6402 10.9604 26.6402 11.2824V14.7824C26.6402 15.1044 26.3788 15.3658 26.0568 15.3658ZM23.1403 14.1992H25.4736V11.8659H23.1403V14.1992Z" fill="white"/>
<path d="M13.224 17.6994H9.72408C9.40205 17.6994 9.14062 17.4379 9.14062 17.1159C9.14062 16.7941 9.40205 16.5327 9.72408 16.5327H13.224C13.5461 16.5327 13.8072 16.7941 13.8072 17.1159C13.8072 17.4379 13.5461 17.6994 13.224 17.6994Z" fill="white"/>
<path d="M19.641 17.6994H16.1408C15.819 17.6994 15.5576 17.4379 15.5576 17.1159C15.5576 16.7941 15.819 16.5327 16.1408 16.5327H19.641C19.9628 16.5327 20.2242 16.7941 20.2242 17.1159C20.2242 17.4379 19.9628 17.6994 19.641 17.6994Z" fill="white"/>
<path d="M26.0568 17.6994H22.5568C22.2348 17.6994 21.9736 17.4379 21.9736 17.1159C21.9736 16.7941 22.2348 16.5327 22.5568 16.5327H26.0568C26.3788 16.5327 26.6402 16.7941 26.6402 17.1159C26.6402 17.4379 26.3788 17.6994 26.0568 17.6994Z" fill="white"/>
</svg>
