<svg width="145" height="54" viewBox="0 0 145 54" fill="none" xmlns="http://www.w3.org/2000/svg">
<path d="M52.8604 37.9424C52.8604 40.1152 52.4453 42.166 51.6152 44.0947C50.8096 45.999 49.6865 47.6714 48.2461 49.1118C46.8301 50.5278 45.1577 51.6509 43.229 52.481C41.3247 53.2866 39.2861 53.6895 37.1133 53.6895C35.1602 53.6895 33.2803 53.3477 31.4736 52.6641C29.6914 51.9805 28.0801 50.9795 26.6396 49.6611C25.1992 50.9795 23.5757 51.9805 21.769 52.6641C19.9624 53.3477 18.0825 53.6895 16.1294 53.6895C13.9565 53.6895 11.9058 53.2866 9.97705 52.481C8.07275 51.6509 6.40039 50.5278 4.95996 49.1118C3.54395 47.6714 2.4209 45.999 1.59082 44.0947C0.785156 42.166 0.382324 40.1152 0.382324 37.9424V0.442383H10.8926V37.9424C10.8926 38.6748 11.0269 39.3706 11.2954 40.0298C11.564 40.6646 11.9302 41.2261 12.394 41.7144C12.8823 42.1782 13.4438 42.5444 14.0786 42.813C14.7134 43.0815 15.397 43.2158 16.1294 43.2158C16.8618 43.2158 17.5454 43.0815 18.1802 42.813C18.8149 42.5444 19.3643 42.1782 19.8281 41.7144C20.3164 41.2261 20.6948 40.6646 20.9634 40.0298C21.2319 39.3706 21.3662 38.6748 21.3662 37.9424V0.442383H31.8765V37.9424C31.8765 38.6748 32.0107 39.3706 32.2793 40.0298C32.5479 40.6646 32.9141 41.2261 33.3779 41.7144C33.8662 42.1782 34.4277 42.5444 35.0625 42.813C35.6973 43.0815 36.3809 43.2158 37.1133 43.2158C37.8457 43.2158 38.5293 43.0815 39.1641 42.813C39.7988 42.5444 40.3481 42.1782 40.812 41.7144C41.3003 41.2261 41.6787 40.6646 41.9473 40.0298C42.2402 39.3706 42.3867 38.6748 42.3867 37.9424V0.442383H52.8604V37.9424ZM84.3179 52.957H73.8442V10.9526H58.0605V0.442383H100.065V10.9526H84.3179V52.957ZM102.189 16.1895C102.189 14.0166 102.604 11.978 103.434 10.0737C104.264 8.16943 105.387 6.50928 106.803 5.09326C108.244 3.65283 109.916 2.51758 111.82 1.6875C113.725 0.857422 115.763 0.442383 117.936 0.442383H142.033V10.9526H117.936C117.204 10.9526 116.52 11.0869 115.885 11.3555C115.25 11.624 114.689 12.0024 114.201 12.4907C113.737 12.9546 113.371 13.5039 113.102 14.1387C112.833 14.7734 112.699 15.457 112.699 16.1895C112.699 16.9219 112.833 17.6177 113.102 18.2769C113.371 18.9116 113.737 19.4731 114.201 19.9614C114.689 20.4253 115.25 20.7915 115.885 21.0601C116.52 21.3286 117.204 21.4629 117.936 21.4629H128.446C130.619 21.4629 132.658 21.8779 134.562 22.708C136.491 23.5137 138.163 24.6367 139.579 26.0771C141.02 27.4932 142.143 29.1655 142.948 31.0942C143.778 32.9985 144.193 35.0371 144.193 37.21C144.193 39.3828 143.778 41.4214 142.948 43.3257C142.143 45.23 141.02 46.9023 139.579 48.3428C138.163 49.7588 136.491 50.8818 134.562 51.7119C132.658 52.542 130.619 52.957 128.446 52.957H105.119V42.4468H128.446C129.179 42.4468 129.862 42.3125 130.497 42.0439C131.132 41.7754 131.681 41.4092 132.145 40.9453C132.633 40.457 133.012 39.8955 133.28 39.2607C133.549 38.626 133.683 37.9424 133.683 37.21C133.683 36.4775 133.549 35.7939 133.28 35.1592C133.012 34.5244 132.633 33.9751 132.145 33.5112C131.681 33.0229 131.132 32.6445 130.497 32.376C129.862 32.1074 129.179 31.9731 128.446 31.9731H117.936C115.763 31.9731 113.725 31.5581 111.82 30.728C109.916 29.8979 108.244 28.7749 106.803 27.3589C105.387 25.9185 104.264 24.2461 103.434 22.3418C102.604 20.4131 102.189 18.3623 102.189 16.1895Z" fill="white"/>
</svg>
