<svg width="597" height="1141" viewBox="0 0 597 1141" fill="none" xmlns="http://www.w3.org/2000/svg">
<circle cx="226" cy="863.293" r="216.5" transform="rotate(-2.40658 226 863.293)" fill="url(#paint0_linear)"/>
<circle cx="529.192" cy="790" r="216.5" transform="rotate(-16.3413 529.192 790)" fill="url(#paint1_linear)"/>
<circle cx="570.5" cy="589.5" r="216.5" fill="url(#paint2_linear)"/>
<circle cx="580.997" cy="321.997" r="216.5" transform="rotate(-64.2849 580.997 321.997)" fill="url(#paint3_linear)"/>
<circle cx="658.845" cy="162.844" r="216.5" transform="rotate(-117.399 658.845 162.844)" fill="url(#paint4_linear)"/>
<ellipse rx="271.727" ry="299.697" transform="matrix(-0.355714 0.934595 0.934595 0.355714 780.753 663.562)" fill="url(#paint5_linear)"/>
<circle cx="442.5" cy="924.19" r="216.5" fill="url(#paint6_linear)"/>
<defs>
<linearGradient id="paint0_linear" x1="174.802" y1="189.229" x2="416.398" y2="1152.53" gradientUnits="userSpaceOnUse">
<stop stop-color="#F22B2B"/>
<stop offset="1" stop-color="#3C0809" stop-opacity="0.43"/>
</linearGradient>
<linearGradient id="paint1_linear" x1="529.192" y1="573.5" x2="529.192" y2="1006.5" gradientUnits="userSpaceOnUse">
<stop stop-color="#F22B2B"/>
<stop offset="1" stop-color="#250404" stop-opacity="0.49"/>
</linearGradient>
<linearGradient id="paint2_linear" x1="519.302" y1="-84.5634" x2="760.898" y2="878.737" gradientUnits="userSpaceOnUse">
<stop stop-color="#F22B2B"/>
<stop offset="1" stop-color="#3C0809" stop-opacity="0.43"/>
</linearGradient>
<linearGradient id="paint3_linear" x1="529.799" y1="-352.066" x2="771.395" y2="611.234" gradientUnits="userSpaceOnUse">
<stop stop-color="#F22B2B"/>
<stop offset="1" stop-color="#3C0809" stop-opacity="0.43"/>
</linearGradient>
<linearGradient id="paint4_linear" x1="607.647" y1="-511.219" x2="849.243" y2="452.081" gradientUnits="userSpaceOnUse">
<stop stop-color="#F22B2B"/>
<stop offset="1" stop-color="#3C0809" stop-opacity="0.43"/>
</linearGradient>
<linearGradient id="paint5_linear" x1="207.469" y1="-633.397" x2="571.666" y2="683.217" gradientUnits="userSpaceOnUse">
<stop stop-color="#F22B2B"/>
<stop offset="1" stop-color="#3C0809" stop-opacity="0.43"/>
</linearGradient>
<linearGradient id="paint6_linear" x1="442.5" y1="707.69" x2="442.5" y2="1140.69" gradientUnits="userSpaceOnUse">
<stop stop-color="#F22B2B"/>
<stop offset="1" stop-color="#250404" stop-opacity="0.49"/>
</linearGradient>
</defs>
</svg>
