<svg width="36" height="36" viewBox="0 0 36 36" fill="none" xmlns="http://www.w3.org/2000/svg">
<path d="M32.052 32.2823H4.05194C3.7299 32.2823 3.46875 32.0212 3.46875 31.6991V10.6992C3.46875 10.3771 3.7299 10.1157 4.05194 10.1157H32.052C32.3741 10.1157 32.6352 10.3771 32.6352 10.6992V31.6991C32.6352 32.0212 32.3741 32.2823 32.052 32.2823ZM4.6354 31.1157H31.4686V11.2824H4.6354V31.1157Z" fill="white"/>
<path d="M9.30176 20.6155C8.34794 20.6155 7.42989 20.3279 6.64536 19.7837C6.47713 19.667 6.38287 19.4716 6.39569 19.2673C6.44402 18.4985 6.80504 17.7765 7.38076 17.2688C7.11239 16.8827 6.96847 16.4258 6.96847 15.9487C6.96847 15.2546 7.27475 14.6007 7.80854 14.1561C8.34153 13.7118 9.04381 13.528 9.73622 13.6551C10.6481 13.822 11.3894 14.5417 11.5819 15.4466C11.7186 16.0883 11.5843 16.7439 11.2228 17.2683C11.799 17.7765 12.1595 18.498 12.2086 19.2673C12.2215 19.471 12.1269 19.667 11.959 19.7829C11.1742 20.3279 10.2556 20.6155 9.30176 20.6155ZM7.61254 19.0125C8.64487 19.5853 9.95919 19.5848 10.991 19.0125C10.8836 18.5989 10.6265 18.2379 10.2556 17.9946C10.0567 17.8638 9.92768 17.652 9.90258 17.4136C9.87748 17.1719 9.96106 16.9351 10.1312 16.7631C10.4123 16.4795 10.525 16.0875 10.4404 15.6891C10.3472 15.2488 9.97147 14.8848 9.52687 14.8031C9.17172 14.7377 8.82645 14.8263 8.55569 15.0522C8.28839 15.2749 8.13511 15.6018 8.13511 15.9487C8.13511 16.2544 8.25528 16.5439 8.47291 16.7631C8.64327 16.9345 8.72658 17.1714 8.70095 17.413C8.67585 17.652 8.54687 17.8638 8.3474 17.9952C7.97703 18.2384 7.71908 18.5989 7.61254 19.0125Z" fill="white"/>
<path d="M14.552 32.2823H4.05194C3.7299 32.2823 3.46875 32.0212 3.46875 31.6991V10.6992C3.46875 10.3771 3.7299 10.1157 4.05194 10.1157H14.552C14.8741 10.1157 15.1352 10.3771 15.1352 10.6992V31.6991C15.1352 32.0212 14.8741 32.2823 14.552 32.2823ZM4.6354 31.1157H13.9686V11.2824H4.6354V31.1157Z" fill="white"/>
<path d="M29.7184 17.6988H20.3849C20.0629 17.6988 19.8018 17.4374 19.8018 17.1154V13.6154C19.8018 13.2934 20.0629 13.0322 20.3849 13.0322H29.7184C30.0404 13.0322 30.3016 13.2934 30.3016 13.6154V17.1154C30.3016 17.4374 30.0404 17.6988 29.7184 17.6988ZM20.9684 16.5322H29.1349V14.1989H20.9684V16.5322Z" fill="white"/>
<path d="M29.7184 23.5323H20.3849C20.0629 23.5323 19.8018 23.2712 19.8018 22.9491V19.4492C19.8018 19.1271 20.0629 18.8657 20.3849 18.8657H29.7184C30.0404 18.8657 30.3016 19.1271 30.3016 19.4492V22.9491C30.3016 23.2712 30.0404 23.5323 29.7184 23.5323ZM20.9684 22.3657H29.1349V20.0324H20.9684V22.3657Z" fill="white"/>
<path d="M20.3852 17.6988H16.8852C16.5632 17.6988 16.3018 17.4374 16.3018 17.1154V13.6154C16.3018 13.2934 16.5632 13.0322 16.8852 13.0322H20.3852C20.7072 13.0322 20.9686 13.2934 20.9686 13.6154V17.1154C20.9686 17.4374 20.7072 17.6988 20.3852 17.6988ZM17.4684 16.5322H19.802V14.1989H17.4684V16.5322Z" fill="white"/>
<path d="M20.3852 23.5323H16.8852C16.5632 23.5323 16.3018 23.2712 16.3018 22.9491V19.4492C16.3018 19.1271 16.5632 18.8657 16.8852 18.8657H20.3852C20.7072 18.8657 20.9686 19.1271 20.9686 19.4492V22.9491C20.9686 23.2712 20.7072 23.5323 20.3852 23.5323ZM17.4684 22.3657H19.802V20.0324H17.4684V22.3657Z" fill="white"/>
<path d="M32.9269 35.1987H3.17665C1.72962 35.1987 0.551758 34.0209 0.551758 32.5738V2.82362C0.551758 1.37659 1.72962 0.19873 3.17665 0.19873H32.9269C34.3739 0.19873 35.5518 1.37659 35.5518 2.82362V32.5738C35.5518 34.0209 34.3739 35.1987 32.9269 35.1987ZM3.17665 1.36538C2.37289 1.36538 1.71841 2.01987 1.71841 2.82362V32.5738C1.71841 33.3776 2.37289 34.0321 3.17665 34.0321H32.9269C33.7312 34.0321 34.3851 33.3776 34.3851 32.5738V2.82362C34.3851 2.01987 33.7306 1.36538 32.9269 1.36538H3.17665Z" fill="white"/>
<path d="M5.80152 6.03217H3.46822C3.14619 6.03217 2.88477 5.77102 2.88477 5.44898V3.11568C2.88477 2.79365 3.14619 2.53223 3.46822 2.53223H5.80152C6.12356 2.53223 6.38471 2.79365 6.38471 3.11568V5.44898C6.38471 5.77102 6.12356 6.03217 5.80152 6.03217ZM4.05141 4.86552H5.21806V3.69888H4.05141V4.86552Z" fill="white"/>
<path d="M10.4685 6.03217H8.13522C7.81318 6.03217 7.55176 5.77102 7.55176 5.44898V3.11568C7.55176 2.79365 7.81318 2.53223 8.13522 2.53223H10.4685C10.7906 2.53223 11.052 2.79365 11.052 3.11568V5.44898C11.052 5.77102 10.7906 6.03217 10.4685 6.03217ZM8.71841 4.86552H9.88532V3.69888H8.71841V4.86552Z" fill="white"/>
<path d="M15.1352 6.03217H12.8019C12.4799 6.03217 12.2188 5.77102 12.2188 5.44898V3.11568C12.2188 2.79365 12.4799 2.53223 12.8019 2.53223H15.1352C15.4573 2.53223 15.7187 2.79365 15.7187 3.11568V5.44898C15.7187 5.77102 15.4573 6.03217 15.1352 6.03217ZM13.3854 4.86552H14.552V3.69888H13.3854V4.86552Z" fill="white"/>
<path d="M34.9683 8.36527H1.13522C0.813179 8.36527 0.551758 8.10412 0.551758 7.78208V2.82362C0.551758 1.37659 1.72962 0.19873 3.17665 0.19873H32.9269C34.3739 0.19873 35.5518 1.37659 35.5518 2.82362V7.78208C35.5518 8.10412 35.2903 8.36527 34.9683 8.36527ZM1.71841 7.19862H34.3851V2.82362C34.3851 2.01987 33.7306 1.36538 32.9269 1.36538H3.17665C2.37289 1.36538 1.71841 2.01987 1.71841 2.82362V7.19862Z" fill="white"/>
</svg>
