<svg width="36" height="29" viewBox="0 0 36 29" fill="none" xmlns="http://www.w3.org/2000/svg">
<path d="M27.1252 19.4027C26.9484 19.4027 26.7727 19.3362 26.6386 19.2033L25.3051 17.8697L24.4797 18.6946C24.3345 18.8398 24.1233 18.8981 23.9251 18.8481C23.7262 18.7979 23.5681 18.6463 23.5091 18.4497L21.759 12.6163C21.6973 12.4104 21.7534 12.1883 21.9051 12.0366C22.0568 11.8844 22.2795 11.8278 22.4853 11.8903L28.3188 13.6401C28.5153 13.6996 28.6662 13.8572 28.7164 14.0566C28.7666 14.2556 28.7083 14.466 28.5631 14.6112L27.7796 15.3947L29.1113 16.7263C29.3796 16.996 29.3796 17.4353 29.1113 17.7047L27.6151 19.2009C27.4798 19.3357 27.3019 19.4027 27.1252 19.4027ZM25.3051 16.5357C25.5088 16.5357 25.6995 16.615 25.8437 16.7587L27.1257 18.0406L27.9511 17.2158L26.5978 15.8625C26.4731 15.7389 26.4042 15.5725 26.4042 15.3952C26.4042 15.2174 26.4731 15.051 26.5983 14.9263L27.0482 14.4767L23.1884 13.3186L24.3462 17.1792L24.7673 16.7579C24.9102 16.615 25.1016 16.5357 25.3051 16.5357Z" fill="white"/>
<path d="M25.8137 7.78207H9.48064C9.15861 7.78207 8.89746 7.52146 8.89746 7.19862V4.28218C8.89746 3.95961 9.15861 3.69873 9.48064 3.69873H25.8137C26.1358 3.69873 26.3972 3.95961 26.3972 4.28218V7.19862C26.3972 7.52146 26.1358 7.78207 25.8137 7.78207ZM10.0641 6.61544H25.2306V4.86536H10.0641V6.61544Z" fill="white"/>
<path d="M16.4804 14.1988H11.8137C11.4916 14.1988 11.2305 13.9379 11.2305 13.6153V10.1154C11.2305 9.79284 11.4916 9.53223 11.8137 9.53223H16.4804C16.8022 9.53223 17.0636 9.79284 17.0636 10.1154V13.6153C17.0636 13.9379 16.8022 14.1988 16.4804 14.1988ZM12.3971 13.0321H15.897V10.6989H12.3971V13.0321Z" fill="white"/>
<path d="M22.6674 14.1988H18.8139C18.4919 14.1988 18.2305 13.9379 18.2305 13.6153V10.1154C18.2305 9.79284 18.4919 9.53223 18.8139 9.53223H23.4804C23.8025 9.53223 24.0639 9.79284 24.0639 10.1154V12.7977C24.0639 12.9819 23.9768 13.1552 23.8286 13.2655C23.681 13.3763 23.4893 13.4094 23.313 13.3563L23.1875 13.3192L23.2262 13.4487C23.2791 13.6252 23.2455 13.8166 23.1352 13.9643C23.0254 14.1117 22.8521 14.1988 22.6674 14.1988ZM19.3971 13.0321H21.8839L21.7589 12.6161C21.6973 12.4108 21.7533 12.1881 21.905 12.0364C22.0567 11.8847 22.2799 11.8292 22.4847 11.8901L22.897 12.0137V10.6989H19.3971V13.0321Z" fill="white"/>
<path d="M23.3671 16.5319H9.47993C9.1579 16.5319 8.89648 16.2713 8.89648 15.9485V4.28218C8.89648 3.95961 9.1579 3.69873 9.47993 3.69873H25.813C26.1351 3.69873 26.3962 3.95961 26.3962 4.28218V13.4975C26.3962 13.6817 26.3094 13.855 26.1612 13.9658C26.013 14.0756 25.8224 14.11 25.6456 14.0564L23.1868 13.3183L23.9254 15.7813C23.9786 15.9578 23.9447 16.1493 23.8349 16.297C23.7252 16.4452 23.5513 16.5319 23.3671 16.5319ZM10.0639 15.3653H22.5831L21.7583 12.616C21.6966 12.4101 21.7524 12.188 21.9041 12.0363C22.0557 11.8841 22.2787 11.8275 22.4846 11.89L25.2296 12.7135V4.86536H10.0634L10.0639 15.3653Z" fill="white"/>
<path d="M33.2947 28.7816H3.16654C1.82313 28.7816 0.730469 27.6892 0.730469 26.3458V2.6348C0.730469 1.2914 1.82313 0.19873 3.16654 0.19873H33.2947C34.6373 0.19873 35.7299 1.2914 35.7299 2.6348V26.3458C35.7305 27.6892 34.6381 28.7816 33.2947 28.7816ZM3.16707 1.36536C2.46693 1.36536 1.89763 1.93466 1.89763 2.6348V26.3458C1.89763 27.0457 2.46693 27.615 3.16707 27.615H33.2952C33.9951 27.615 34.5638 27.0457 34.5638 26.3458V2.6348C34.5638 1.93466 33.9945 1.36536 33.2952 1.36536H3.16707Z" fill="white"/>
<path d="M33.2941 28.7817H3.16654C1.82367 28.7817 0.730469 27.6893 0.730469 26.3459V20.6152H35.7299V26.3459C35.7299 27.6893 34.6375 28.7817 33.2941 28.7817ZM1.8971 21.7819V26.3459C1.8971 27.0457 2.4664 27.615 3.16654 27.615H33.2941C33.994 27.615 34.5633 27.0457 34.5633 26.3459V21.7819H1.8971Z" fill="white"/>
</svg>
