<svg width="65" height="82" viewBox="0 0 65 82" fill="none" xmlns="http://www.w3.org/2000/svg">
<path d="M32.1487 0.137505L0.214844 32.7334L32.1487 65.3293L64.0826 32.7334L32.1487 0.137505Z" fill="white"/>
<path d="M54.6662 9.62109H9.50488V55.7186H54.6662V9.62109Z" fill="white"/>
<path d="M52.2141 12.1226H11.9561V53.2152H52.2141V12.1226Z" stroke="black" stroke-width="1.5"/>
<path d="M20.1787 44.7297L43.901 20.5156" stroke="black" stroke-width="1.5"/>
<path d="M28.7617 43.2292L36.8178 34.7706L39.4319 38.4885L45.3424 29.478M45.3424 29.478L42.2336 30.5358M45.3424 29.478V32.6514" stroke="black" stroke-width="1.5"/>
<path d="M25.0312 19.5718C22.3556 19.5718 20.1787 21.7938 20.1787 24.5249C20.1787 27.2561 22.3556 29.4781 25.0312 29.4781C27.7068 29.4781 29.8837 27.2561 29.8837 24.5249C29.8837 21.7938 27.7068 19.5718 25.0312 19.5718ZM25.0312 29.0473C22.5881 29.0473 20.6006 27.0188 20.6006 24.5249C20.6006 22.0312 22.5881 20.0025 25.0312 20.0025C27.4745 20.0025 29.4618 22.0312 29.4618 24.5249C29.4618 27.0188 27.4745 29.0473 25.0312 29.0473Z" fill="black"/>
<path d="M25.0308 19.5718C23.4929 19.5718 22.2881 21.7473 22.2881 24.5249C22.2881 27.3026 23.4929 29.4781 25.0308 29.4781C26.5689 29.4781 27.7736 27.3026 27.7736 24.5249C27.7736 21.7473 26.5689 19.5718 25.0308 19.5718ZM25.0308 29.0473C23.773 29.0473 22.71 26.9761 22.71 24.5249C22.71 22.0738 23.773 20.0025 25.0308 20.0025C26.2887 20.0025 27.3516 22.0738 27.3516 24.5249C27.3516 26.9761 26.2887 29.0473 25.0308 29.0473Z" fill="black"/>
<path d="M25.0313 19.5718C24.9148 19.5718 24.8203 19.6683 24.8203 19.7873V29.2628C24.8203 29.3816 24.9148 29.4781 25.0313 29.4781C25.1477 29.4781 25.2423 29.3816 25.2423 29.2628V19.7873C25.2423 19.6683 25.1477 19.5718 25.0313 19.5718Z" fill="black"/>
<path d="M29.6728 24.3096H20.3897C20.2733 24.3096 20.1787 24.4061 20.1787 24.5249C20.1787 24.6438 20.2733 24.7402 20.3897 24.7402H29.6728C29.7893 24.7402 29.8837 24.6438 29.8837 24.5249C29.8837 24.4061 29.7893 24.3096 29.6728 24.3096Z" fill="black"/>
<path d="M28.8288 22.7256H21.2334C21.117 22.7256 21.0225 22.822 21.0225 22.9409C21.0225 23.0597 21.117 23.1563 21.2334 23.1563H28.8288C28.9452 23.1563 29.0397 23.0597 29.0397 22.9409C29.0397 22.822 28.9452 22.7256 28.8288 22.7256Z" fill="black"/>
<path d="M28.8288 26.894H21.2334C21.117 26.894 21.0225 26.9905 21.0225 27.1094C21.0225 27.2283 21.117 27.3247 21.2334 27.3247H28.8288C28.9452 27.3247 29.0397 27.2283 29.0397 27.1094C29.0397 26.9905 28.9452 26.894 28.8288 26.894Z" fill="black"/>
<path d="M31.2327 27.7568L27.5935 24.5522C27.5625 24.525 27.5168 24.5171 27.4777 24.5333C27.4385 24.5491 27.4131 24.5852 27.4131 24.6252V29.2318C27.4131 29.2722 27.4392 29.3088 27.4792 29.3242C27.519 29.3401 27.5651 29.3312 27.5958 29.3026L28.6073 28.3562L29.1384 29.2792C29.1577 29.3128 29.1946 29.3319 29.2327 29.3319C29.2488 29.3319 29.2651 29.3285 29.2806 29.3213L30.1368 28.9208C30.1626 28.9087 30.1822 28.8872 30.1909 28.8614C30.1997 28.8356 30.1968 28.8076 30.1831 28.7837L29.6917 27.9299H31.1593C31.2031 27.9299 31.2425 27.9048 31.2588 27.8666C31.275 27.8284 31.2646 27.785 31.2327 27.7568Z" fill="black"/>
<path d="M27.6817 77.7066C27.6817 78.1645 27.596 78.5966 27.4247 79.003C27.2584 79.4043 27.0265 79.7568 26.7292 80.0604C26.4368 80.3587 26.0915 80.5954 25.6933 80.7703C25.3002 80.9401 24.8794 81.025 24.4308 81.025C24.0275 81.025 23.6394 80.953 23.2665 80.8089C22.8985 80.6648 22.5659 80.4539 22.2684 80.1761C21.9711 80.4539 21.6359 80.6648 21.2629 80.8089C20.89 80.953 20.5019 81.025 20.0986 81.025C19.65 81.025 19.2266 80.9401 18.8284 80.7703C18.4353 80.5954 18.09 80.3587 17.7927 80.0604C17.5003 79.7568 17.2684 79.4043 17.0971 79.003C16.9308 78.5966 16.8477 78.1645 16.8477 77.7066V69.8042H19.0175V77.7066C19.0175 77.8609 19.0452 78.0076 19.1006 78.1464C19.156 78.2802 19.2317 78.3985 19.3274 78.5015C19.4283 78.5992 19.5442 78.6764 19.6753 78.7329C19.8062 78.7895 19.9474 78.8179 20.0986 78.8179C20.2499 78.8179 20.3909 78.7895 20.522 78.7329C20.6531 78.6764 20.7665 78.5992 20.8622 78.5015C20.963 78.3985 21.0412 78.2802 21.0966 78.1464C21.152 78.0076 21.1798 77.8609 21.1798 77.7066V69.8042H23.3496V77.7066C23.3496 77.8609 23.3773 78.0076 23.4328 78.1464C23.4882 78.2802 23.5638 78.3985 23.6597 78.5015C23.7604 78.5992 23.8763 78.6764 24.0074 78.7329C24.1384 78.7895 24.2795 78.8179 24.4308 78.8179C24.582 78.8179 24.7231 78.7895 24.8541 78.7329C24.9852 78.6764 25.0986 78.5992 25.1944 78.5015C25.2951 78.3985 25.3733 78.2802 25.4287 78.1464C25.4892 78.0076 25.5195 77.8609 25.5195 77.7066V69.8042H27.6817V77.7066ZM34.1762 80.8706H32.014V72.019H28.7554V69.8042H37.4273V72.019H34.1762V80.8706ZM37.8657 73.1226C37.8657 72.6646 37.9514 72.2351 38.1228 71.8338C38.2941 71.4325 38.526 71.0827 38.8184 70.7842C39.1158 70.4807 39.461 70.2415 39.8541 70.0666C40.2473 69.8917 40.6682 69.8042 41.1167 69.8042H46.0915V72.019H41.1167C40.9656 72.019 40.8244 72.0473 40.6933 72.1038C40.5624 72.1604 40.4464 72.2403 40.3456 72.3431C40.2499 72.4409 40.1742 72.5566 40.1188 72.6904C40.0633 72.8241 40.0357 72.9682 40.0357 73.1226C40.0357 73.2769 40.0633 73.4235 40.1188 73.5625C40.1742 73.6962 40.2499 73.8146 40.3456 73.9174C40.4464 74.0152 40.5624 74.0923 40.6933 74.149C40.8244 74.2055 40.9656 74.2338 41.1167 74.2338H43.2866C43.7352 74.2338 44.1561 74.3212 44.5492 74.4963C44.9474 74.666 45.2927 74.9026 45.585 75.2062C45.8824 75.5046 46.1143 75.8571 46.2806 76.2634C46.4519 76.6647 46.5376 77.0943 46.5376 77.5523C46.5376 78.0101 46.4519 78.4397 46.2806 78.841C46.1143 79.2423 45.8824 79.5947 45.585 79.8982C45.2927 80.1967 44.9474 80.4334 44.5492 80.6083C44.1561 80.7832 43.7352 80.8706 43.2866 80.8706H38.4706V78.6559H43.2866C43.4379 78.6559 43.579 78.6275 43.71 78.5709C43.8411 78.5143 43.9545 78.4371 44.0503 78.3394C44.151 78.2365 44.2292 78.1182 44.2846 77.9844C44.3401 77.8506 44.3678 77.7066 44.3678 77.5523C44.3678 77.3979 44.3401 77.2538 44.2846 77.12C44.2292 76.9863 44.151 76.8706 44.0503 76.7728C43.9545 76.6698 43.8411 76.5902 43.71 76.5335C43.579 76.477 43.4379 76.4487 43.2866 76.4487H41.1167C40.6682 76.4487 40.2473 76.3613 39.8541 76.1863C39.461 76.0113 39.1158 75.7748 38.8184 75.4763C38.526 75.1727 38.2941 74.8203 38.1228 74.4191C37.9514 74.0126 37.8657 73.5804 37.8657 73.1226Z" fill="white"/>
</svg>
