<svg width="36" height="51" viewBox="0 0 36 51" fill="none" xmlns="http://www.w3.org/2000/svg">
<g opacity="0.7">
<path d="M18 0.69043C8.28583 0.69043 0.383057 8.71741 0.383057 18.5834V32.8322C0.383057 42.6982 8.28583 50.7247 18 50.7247C27.7136 50.7247 35.6169 42.7225 35.6169 32.8869V18.5834C35.6169 8.71741 27.7136 0.69043 18 0.69043ZM32.3033 32.8869C32.3033 40.8957 25.8872 47.4112 18 47.4112C10.1133 47.4112 3.69665 40.8709 3.69665 32.8317V18.5834C3.69665 10.5442 10.1133 4.00393 18 4.00393C25.8873 4.00393 32.3033 10.5442 32.3033 18.5834V32.8869Z" fill="white"/>
<path d="M17.9999 14.3862C17.0848 14.3862 16.3431 15.128 16.3431 16.043V21.8417C16.3431 22.7568 17.0848 23.4985 17.9999 23.4985C18.915 23.4985 19.6567 22.7568 19.6567 21.8417V16.043C19.6567 15.128 18.915 14.3862 17.9999 14.3862Z" fill="white"/>
</g>
</svg>
